<svg width="360" height="501" viewBox="0 0 360 501" fill="none" xmlns="http://www.w3.org/2000/svg">
<path d="M180 228.107C205.391 276.377 250.033 349.759 281.563 373.475C313.092 396.913 347.411 414.212 274.866 382.962C202.042 351.712 149.029 262.984 113.873 195.741C86.808 144.123 63.6496 96.9688 13.1473 62.0915C13.1473 62.0915 -36.5179 25.5402 19.0067 51.7678C111.92 95.8527 144.565 161.143 180 228.107ZM83.1808 379.614C183.627 459.413 279.051 425.652 322.578 420.908L400.982 500.429H430L339.877 409.19C339.319 354.502 463.203 0.428537 -70 0.428537C-11.9643 204.391 -17.5446 299.815 83.1808 379.614Z" fill="white" fill-opacity="0.15"/>
</svg>
